# xmcd
#
# Track frame offsets:
#	150
#	18145
#	34384
#	45747
#	59904
#	73526
#	84509
#	103819
#	118340
#	129728
#	148778
#	165774
#	179146
#
# Disc length: 2560 seconds
# Revision: 0
# Processed by: cddbd v1.5.2PL0 Copyright (c) Steve Scherf et al.
# Submitted via: dBpowerAMP V12.0
#
DISCID=c209fe0d
DTITLE=The Stonemans - Patsy, Donna and Roni
DYEAR=2009
DGENRE=Country
TTITLE0=Sinking Of The Titanic
TTITLE1=Remember The Poor Tramp Has To Love
TTITLE2=Scotty's Bow
TTITLE3=The Birds Are Returning
TTITLE4=Ruby
TTITLE5=House Of The Lord
TTITLE6=Tell My Mother I Will Meet Her
TTITLE7=I Forgot More Than You'll Ever Know
TTITLE8=This Little Light Of Mine
TTITLE9=Shackles And Chains
TTITLE10=Barney McCoy
TTITLE11=I Feel Like Traveling On
TTITLE12=Prayers And Pinto Beans
EXTD=
EXTT0=
EXTT1=
EXTT2=
EXTT3=
EXTT4=
EXTT5=
EXTT6=
EXTT7=
EXTT8=
EXTT9=
EXTT10=
EXTT11=
EXTT12=
PLAYORDER=
